<?xml version="1.0" encoding="UTF-8" standalone="no"?>
<!-- Created with Inkscape (http://www.inkscape.org/) -->

<svg
   xmlns:dc="http://purl.org/dc/elements/1.1/"
   xmlns:cc="http://creativecommons.org/ns#"
   xmlns:rdf="http://www.w3.org/1999/02/22-rdf-syntax-ns#"
   xmlns:svg="http://www.w3.org/2000/svg"
   xmlns="http://www.w3.org/2000/svg"
   xmlns:sodipodi="http://sodipodi.sourceforge.net/DTD/sodipodi-0.dtd"
   xmlns:inkscape="http://www.inkscape.org/namespaces/inkscape"
   width="210mm"
   height="297mm"
   viewBox="0 0 210 297"
   version="1.1"
   id="svg8"
   inkscape:version="0.92.2 5c3e80d, 2017-08-06"
   sodipodi:docname="UNVTlogo_outline4inkscape.svg">
  <defs
     id="defs2" />
  <sodipodi:namedview
     id="base"
     pagecolor="#ffffff"
     bordercolor="#666666"
     borderopacity="1.0"
     inkscape:pageopacity="0.0"
     inkscape:pageshadow="2"
     inkscape:zoom="0.7"
     inkscape:cx="314.35665"
     inkscape:cy="564.17444"
     inkscape:document-units="mm"
     inkscape:current-layer="layer1"
     showgrid="false"
     inkscape:window-width="1440"
     inkscape:window-height="855"
     inkscape:window-x="0"
     inkscape:window-y="1"
     inkscape:window-maximized="1" />
  <metadata
     id="metadata5">
    <rdf:RDF>
      <cc:Work
         rdf:about="">
        <dc:format>image/svg+xml</dc:format>
        <dc:type
           rdf:resource="http://purl.org/dc/dcmitype/StillImage" />
        <dc:title></dc:title>
      </cc:Work>
    </rdf:RDF>
  </metadata>
  <g
     inkscape:label="レイヤー 1"
     inkscape:groupmode="layer"
     id="layer1">
    <g
       aria-label="The United
"
       transform="matrix(0.23736075,0,0,0.23736075,-28.661891,30.134226)"
       style="font-style:normal;font-weight:normal;font-size:40px;line-height:1.25;font-family:sans-serif;letter-spacing:0px;word-spacing:0px;fill:#000000;fill-opacity:1;stroke:none"
       id="flowRoot3699">
      <path
         d="m 270.03909,182.89121 v 86.26302 H 254.86982 V 182.89121 H 231.75784 V 168.6334 h 61.32812 v 14.25781 z"
         style="font-style:normal;font-variant:normal;font-weight:500;font-stretch:normal;font-size:133.33332825px;font-family:Futura;-inkscape-font-specification:'Futura, Medium';font-variant-ligatures:normal;font-variant-caps:normal;font-variant-numeric:normal;font-feature-settings:normal;text-align:end;writing-mode:lr-tb;text-anchor:end"
         id="path3987" />
      <path
         d="m 303.82815,159.19329 h 14.64843 v 51.82292 q 7.8125,-7.03125 17.25261,-7.03125 10.74218,0 17.1875,6.96614 5.46875,6.05469 5.46875,19.33594 v 38.86719 H 343.737 v -37.5 q 0,-7.61719 -2.73438,-11.00261 -2.66927,-3.45052 -8.65885,-3.45052 -7.68229,0 -10.80729,4.75261 -3.0599,4.81771 -3.0599,16.53646 v 30.66406 h -14.64843 z"
         style="font-style:normal;font-variant:normal;font-weight:500;font-stretch:normal;font-size:133.33332825px;font-family:Futura;-inkscape-font-specification:'Futura, Medium';font-variant-ligatures:normal;font-variant-caps:normal;font-variant-numeric:normal;font-feature-settings:normal;text-align:end;writing-mode:lr-tb;text-anchor:end"
         id="path3989" />
      <path
         d="m 434.75263,240.89902 h -45.44271 q 0.58594,7.8125 5.07812,12.43489 4.49219,4.5573 11.52344,4.5573 5.46875,0 9.04948,-2.60417 3.51563,-2.60417 8.00781,-9.63542 l 12.36979,6.90104 q -2.86458,4.88282 -6.05468,8.39844 -3.19011,3.45052 -6.83594,5.72917 -3.64583,2.21354 -7.8776,3.25521 -4.23178,1.04166 -9.17969,1.04166 -14.19271,0 -22.78646,-9.11458 -8.59375,-9.17969 -8.59375,-24.34896 0,-15.03906 8.33333,-24.34895 8.39844,-9.17969 22.26563,-9.17969 13.99739,0 22.13541,8.91927 8.07292,8.85417 8.07292,24.54427 z m -15.03907,-11.97917 q -3.05989,-11.71875 -14.77864,-11.71875 -2.66927,0 -5.01302,0.84636 -2.34375,0.78125 -4.29688,2.34375 -1.88802,1.49739 -3.2552,3.64583 -1.36719,2.14844 -2.08334,4.88281 z"
         style="font-style:normal;font-variant:normal;font-weight:500;font-stretch:normal;font-size:133.33332825px;font-family:Futura;-inkscape-font-specification:'Futura, Medium';font-variant-ligatures:normal;font-variant-caps:normal;font-variant-numeric:normal;font-feature-settings:normal;text-align:end;writing-mode:lr-tb;text-anchor:end"
         id="path3991" />
      <path
         d="m 509.81772,168.6334 v 60.54687 q 0,12.95573 4.23177,18.94531 6.3151,8.65886 17.77343,8.65886 11.52344,0 17.83855,-8.65886 4.23177,-5.79427 4.23177,-18.94531 V 168.6334 h 15.16927 v 64.71354 q 0,15.88541 -9.89584,26.17187 -11.13281,11.45833 -27.34375,11.45833 -16.21093,0 -27.27864,-11.45833 -9.89583,-10.28646 -9.89583,-26.17187 V 168.6334 Z"
         style="font-style:normal;font-variant:normal;font-weight:500;font-stretch:normal;font-size:133.33332825px;font-family:Futura;-inkscape-font-specification:'Futura, Medium';font-variant-ligatures:normal;font-variant-caps:normal;font-variant-numeric:normal;font-feature-settings:normal;text-align:end;writing-mode:lr-tb;text-anchor:end"
         id="path3993" />
      <path
         d="m 591.32814,205.74277 h 14.71354 v 5.85938 q 7.68229,-7.61719 17.31771,-7.61719 11.06771,0 17.2526,6.96614 5.33854,5.92448 5.33854,19.33594 v 38.86719 h -14.71354 v -35.41667 q 0,-9.375 -2.60416,-12.95573 -2.53907,-3.64583 -9.2448,-3.64583 -7.29166,0 -10.35156,4.81771 -2.99479,4.7526 -2.99479,16.60156 v 30.59896 h -14.71354 z"
         style="font-style:normal;font-variant:normal;font-weight:500;font-stretch:normal;font-size:133.33332825px;font-family:Futura;-inkscape-font-specification:'Futura, Medium';font-variant-ligatures:normal;font-variant-caps:normal;font-variant-numeric:normal;font-feature-settings:normal;text-align:end;writing-mode:lr-tb;text-anchor:end"
         id="path3995" />
      <path
         d="m 679.15364,205.74277 v 63.41146 H 664.5052 v -63.41146 z m -16.86198,-26.36719 q 0,-3.84114 2.79948,-6.64062 2.79948,-2.79948 6.70573,-2.79948 3.97135,0 6.77083,2.79948 2.79948,2.73437 2.79948,6.70573 0,3.97135 -2.79948,6.77083 -2.73437,2.79948 -6.70573,2.79948 -3.97135,0 -6.77083,-2.79948 -2.79948,-2.79948 -2.79948,-6.83594 z"
         style="font-style:normal;font-variant:normal;font-weight:500;font-stretch:normal;font-size:133.33332825px;font-family:Futura;-inkscape-font-specification:'Futura, Medium';font-variant-ligatures:normal;font-variant-caps:normal;font-variant-numeric:normal;font-feature-settings:normal;text-align:end;writing-mode:lr-tb;text-anchor:end"
         id="path3997" />
      <path
         d="m 712.94271,219.41465 v 49.73958 h -14.64844 v -49.73958 h -6.24999 v -13.67188 h 6.24999 v -23.24219 h 14.64844 v 23.24219 h 11.39323 v 13.67188 z"
         style="font-style:normal;font-variant:normal;font-weight:500;font-stretch:normal;font-size:133.33332825px;font-family:Futura;-inkscape-font-specification:'Futura, Medium';font-variant-ligatures:normal;font-variant-caps:normal;font-variant-numeric:normal;font-feature-settings:normal;text-align:end;writing-mode:lr-tb;text-anchor:end"
         id="path3999" />
      <path
         d="m 793.34635,240.89902 h -45.44271 q 0.58594,7.8125 5.07812,12.43489 4.49219,4.5573 11.52344,4.5573 5.46875,0 9.04948,-2.60417 3.51562,-2.60417 8.00781,-9.63542 l 12.36979,6.90104 q -2.86458,4.88282 -6.05468,8.39844 -3.19011,3.45052 -6.83594,5.72917 -3.64583,2.21354 -7.87761,3.25521 -4.23177,1.04166 -9.17968,1.04166 -14.19271,0 -22.78646,-9.11458 -8.59375,-9.17969 -8.59375,-24.34896 0,-15.03906 8.33333,-24.34895 8.39844,-9.17969 22.26563,-9.17969 13.99739,0 22.13541,8.91927 8.07292,8.85417 8.07292,24.54427 z m -15.03907,-11.97917 q -3.05989,-11.71875 -14.77864,-11.71875 -2.66927,0 -5.01302,0.84636 -2.34375,0.78125 -4.29688,2.34375 -1.88802,1.49739 -3.25521,3.64583 -1.36718,2.14844 -2.08333,4.88281 z"
         style="font-style:normal;font-variant:normal;font-weight:500;font-stretch:normal;font-size:133.33332825px;font-family:Futura;-inkscape-font-specification:'Futura, Medium';font-variant-ligatures:normal;font-variant-caps:normal;font-variant-numeric:normal;font-feature-settings:normal;text-align:end;writing-mode:lr-tb;text-anchor:end"
         id="path4001" />
      <path
         d="m 856.04165,159.19329 h 14.71354 v 109.96094 h -14.71354 v -6.64063 q -8.65886,8.46354 -19.59635,8.46354 -13.02084,0 -21.61459,-9.5052 -8.52864,-9.70053 -8.52864,-24.21875 0,-14.19271 8.52864,-23.69792 8.46354,-9.57031 21.28906,-9.57031 11.13282,0 19.92188,9.11458 z m -34.76563,78.0599 q 0,9.11458 4.88282,14.84375 5.01302,5.79427 12.63021,5.79427 8.13802,0 13.15104,-5.59896 5.01302,-5.79427 5.01302,-14.71354 0,-8.91927 -5.01302,-14.71354 -5.01302,-5.66407 -13.02084,-5.66407 -7.55208,0 -12.6302,5.72917 -5.01303,5.79427 -5.01303,14.32292 z"
         style="font-style:normal;font-variant:normal;font-weight:500;font-stretch:normal;font-size:133.33332825px;font-family:Futura;-inkscape-font-specification:'Futura, Medium';font-variant-ligatures:normal;font-variant-caps:normal;font-variant-numeric:normal;font-feature-settings:normal;text-align:end;writing-mode:lr-tb;text-anchor:end"
         id="path4003" />
    </g>
    <g
       aria-label="
Nations
"
       transform="matrix(0.23736075,0,0,0.23736075,-28.921502,56.095047)"
       style="font-style:normal;font-weight:normal;font-size:40px;line-height:1.25;font-family:sans-serif;letter-spacing:0px;word-spacing:0px;fill:#000000;fill-opacity:1;stroke:none"
       id="flowRoot3741">
      <path
         d="M 420.95054,319.15423 V 211.79746 l 73.30729,76.69271 V 218.6334 h 15.16927 v 106.64062 l -73.30729,-76.49739 v 70.3776 z"
         style="font-style:normal;font-variant:normal;font-weight:500;font-stretch:normal;font-size:133.33332825px;font-family:Futura;-inkscape-font-specification:'Futura, Medium';font-variant-ligatures:normal;font-variant-caps:normal;font-variant-numeric:normal;font-feature-settings:normal;text-align:end;writing-mode:lr-tb;text-anchor:end"
         id="path3972" />
      <path
         d="m 578.69793,255.74277 h 14.71354 v 63.41146 h -14.71354 v -6.64063 q -9.04948,8.46354 -19.46615,8.46354 -13.15104,0 -21.74479,-9.5052 -8.52864,-9.70053 -8.52864,-24.21875 0,-14.25782 8.52864,-23.76302 8.52865,-9.50521 21.35417,-9.50521 11.06771,0 19.85677,9.11458 z m -34.76563,31.51042 q 0,9.11458 4.88282,14.84375 5.01302,5.79427 12.6302,5.79427 8.13802,0 13.15105,-5.59896 5.01302,-5.79427 5.01302,-14.71354 0,-8.91927 -5.01302,-14.71354 -5.01303,-5.66407 -13.02084,-5.66407 -7.55208,0 -12.63021,5.72917 -5.01302,5.79427 -5.01302,14.32292 z"
         style="font-style:normal;font-variant:normal;font-weight:500;font-stretch:normal;font-size:133.33332825px;font-family:Futura;-inkscape-font-specification:'Futura, Medium';font-variant-ligatures:normal;font-variant-caps:normal;font-variant-numeric:normal;font-feature-settings:normal;text-align:end;writing-mode:lr-tb;text-anchor:end"
         id="path3974" />
      <path
         d="m 627.00523,269.41465 v 49.73958 h -14.64844 v -49.73958 h -6.25 v -13.67188 h 6.25 v -23.24219 h 14.64844 v 23.24219 h 11.39322 v 13.67188 z"
         style="font-style:normal;font-variant:normal;font-weight:500;font-stretch:normal;font-size:133.33332825px;font-family:Futura;-inkscape-font-specification:'Futura, Medium';font-variant-ligatures:normal;font-variant-caps:normal;font-variant-numeric:normal;font-feature-settings:normal;text-align:end;writing-mode:lr-tb;text-anchor:end"
         id="path3976" />
      <path
         d="m 663.00782,255.74277 v 63.41146 h -14.64843 v -63.41146 z m -16.86197,-26.36719 q 0,-3.84114 2.79948,-6.64062 2.79947,-2.79948 6.70572,-2.79948 3.97136,0 6.77084,2.79948 2.79948,2.73437 2.79948,6.70573 0,3.97135 -2.79948,6.77083 -2.73438,2.79948 -6.70573,2.79948 -3.97136,0 -6.77083,-2.79948 -2.79948,-2.79948 -2.79948,-6.83594 z"
         style="font-style:normal;font-variant:normal;font-weight:500;font-stretch:normal;font-size:133.33332825px;font-family:Futura;-inkscape-font-specification:'Futura, Medium';font-variant-ligatures:normal;font-variant-caps:normal;font-variant-numeric:normal;font-feature-settings:normal;text-align:end;writing-mode:lr-tb;text-anchor:end"
         id="path3978" />
      <path
         d="m 678.69792,286.99277 q 0,-13.73698 9.83073,-23.3724 9.83073,-9.63541 23.95834,-9.63541 14.1927,0 24.08854,9.70052 9.76562,9.70052 9.76562,23.82812 0,14.25781 -9.83073,23.89323 -9.89583,9.57031 -24.28385,9.57031 -14.25781,0 -23.89323,-9.76562 -9.63542,-9.63542 -9.63542,-24.21875 z m 14.97396,0.26042 q 0,9.5052 5.07813,15.03906 5.20833,5.59896 13.73698,5.59896 8.59375,0 13.73697,-5.53386 5.14323,-5.53385 5.14323,-14.77864 0,-9.24479 -5.14323,-14.77865 -5.20833,-5.59896 -13.73697,-5.59896 -8.39844,0 -13.60677,5.59896 -5.20834,5.59896 -5.20834,14.45313 z"
         style="font-style:normal;font-variant:normal;font-weight:500;font-stretch:normal;font-size:133.33332825px;font-family:Futura;-inkscape-font-specification:'Futura, Medium';font-variant-ligatures:normal;font-variant-caps:normal;font-variant-numeric:normal;font-feature-settings:normal;text-align:end;writing-mode:lr-tb;text-anchor:end"
         id="path3980" />
      <path
         d="m 761.90106,255.74277 h 14.71354 v 5.85938 q 7.68229,-7.61719 17.31771,-7.61719 11.06771,0 17.2526,6.96614 5.33854,5.92448 5.33854,19.33594 v 38.86719 h -14.71354 v -35.41667 q 0,-9.375 -2.60416,-12.95573 -2.53907,-3.64583 -9.2448,-3.64583 -7.29166,0 -10.35156,4.81771 -2.99479,4.7526 -2.99479,16.60156 v 30.59896 h -14.71354 z"
         style="font-style:normal;font-variant:normal;font-weight:500;font-stretch:normal;font-size:133.33332825px;font-family:Futura;-inkscape-font-specification:'Futura, Medium';font-variant-ligatures:normal;font-variant-caps:normal;font-variant-numeric:normal;font-feature-settings:normal;text-align:end;writing-mode:lr-tb;text-anchor:end"
         id="path3982" />
      <path
         d="m 871.92708,266.55006 -12.10938,6.44531 q -2.86458,-5.85937 -7.09635,-5.85937 -2.01823,0 -3.45052,1.36719 -1.43229,1.30208 -1.43229,3.38541 0,3.64584 8.46354,7.22657 11.65365,5.01302 15.6901,9.24479 4.03646,4.23177 4.03646,11.39323 0,9.17968 -6.77083,15.36458 -6.57552,5.85937 -15.88542,5.85937 -15.95052,0 -22.59114,-15.55989 l 12.5,-5.79427 q 2.60416,4.55729 3.97135,5.79427 2.66927,2.47396 6.38021,2.47396 7.42187,0 7.42187,-6.77084 0,-3.90625 -5.72916,-7.29166 -2.21354,-1.10677 -4.42709,-2.14844 -2.21354,-1.04167 -4.49218,-2.14844 -6.38021,-3.125 -8.98438,-6.25 -3.32031,-3.97135 -3.32031,-10.22135 0,-8.26823 5.66406,-13.67188 5.79427,-5.40364 14.0625,-5.40364 12.17448,0 18.09896,12.5651 z"
         style="font-style:normal;font-variant:normal;font-weight:500;font-stretch:normal;font-size:133.33332825px;font-family:Futura;-inkscape-font-specification:'Futura, Medium';font-variant-ligatures:normal;font-variant-caps:normal;font-variant-numeric:normal;font-feature-settings:normal;text-align:end;writing-mode:lr-tb;text-anchor:end"
         id="path3984" />
    </g>
    <g
       aria-label="

Vector Tile
"
       transform="matrix(0.23736075,0,0,0.23736075,-28.916177,82.074222)"
       style="font-style:normal;font-weight:normal;font-size:40px;line-height:1.25;font-family:sans-serif;letter-spacing:0px;word-spacing:0px;fill:#000000;fill-opacity:1;stroke:none"
       id="flowRoot3760">
      <path
         d="m 261.44534,268.6334 27.79947,69.66145 28.19011,-69.66145 h 16.60156 L 288.91929,376.70631 244.84377,268.6334 Z"
         style="font-style:normal;font-variant:normal;font-weight:500;font-stretch:normal;font-size:133.33332825px;font-family:Futura;-inkscape-font-specification:'Futura, Medium';font-variant-ligatures:normal;font-variant-caps:normal;font-variant-numeric:normal;font-feature-settings:normal;text-align:end;writing-mode:lr-tb;text-anchor:end"
         id="path3951" />
      <path
         d="m 393.8672,340.89902 h -45.4427 q 0.58593,7.8125 5.07812,12.43489 4.49219,4.5573 11.52344,4.5573 5.46875,0 9.04948,-2.60417 3.51562,-2.60417 8.00781,-9.63542 l 12.36979,6.90104 q -2.86458,4.88282 -6.05469,8.39844 -3.1901,3.45052 -6.83593,5.72917 -3.64584,2.21354 -7.87761,3.25521 -4.23177,1.04166 -9.17968,1.04166 -14.19271,0 -22.78646,-9.11458 -8.59375,-9.17969 -8.59375,-24.34896 0,-15.03906 8.33333,-24.34895 8.39844,-9.17969 22.26563,-9.17969 13.99739,0 22.13541,8.91927 8.07292,8.85417 8.07292,24.54427 z m -15.03906,-11.97917 q -3.05989,-11.71875 -14.77864,-11.71875 -2.66927,0 -5.01302,0.84636 -2.34375,0.78125 -4.29688,2.34375 -1.88802,1.49739 -3.25521,3.64583 -1.36718,2.14844 -2.08333,4.88281 z"
         style="font-style:normal;font-variant:normal;font-weight:500;font-stretch:normal;font-size:133.33332825px;font-family:Futura;-inkscape-font-specification:'Futura, Medium';font-variant-ligatures:normal;font-variant-caps:normal;font-variant-numeric:normal;font-feature-settings:normal;text-align:end;writing-mode:lr-tb;text-anchor:end"
         id="path3953" />
      <path
         d="m 459.16669,308.47715 v 19.46614 q -5.01302,-6.11979 -8.98438,-8.39844 -3.90625,-2.34375 -9.17968,-2.34375 -8.26823,0 -13.73698,5.79427 -5.46875,5.79427 -5.46875,14.51823 0,8.91927 5.27344,14.64844 5.33854,5.72917 13.60677,5.72917 5.27343,0 9.30989,-2.27865 3.90625,-2.21354 9.17969,-8.59375 v 19.33594 q -8.91927,4.62239 -17.83854,4.62239 -14.71354,0 -24.60938,-9.5052 -9.89583,-9.57032 -9.89583,-23.76302 0,-14.19271 10.02604,-23.95834 10.02604,-9.76562 24.60938,-9.76562 9.375,0 17.70833,4.49219 z"
         style="font-style:normal;font-variant:normal;font-weight:500;font-stretch:normal;font-size:133.33332825px;font-family:Futura;-inkscape-font-specification:'Futura, Medium';font-variant-ligatures:normal;font-variant-caps:normal;font-variant-numeric:normal;font-feature-settings:normal;text-align:end;writing-mode:lr-tb;text-anchor:end"
         id="path3955" />
      <path
         d="m 488.46355,319.41465 v 49.73958 h -14.64843 v -49.73958 h -6.25 v -13.67188 h 6.25 v -23.24219 h 14.64843 v 23.24219 h 11.39323 v 13.67188 z"
         style="font-style:normal;font-variant:normal;font-weight:500;font-stretch:normal;font-size:133.33332825px;font-family:Futura;-inkscape-font-specification:'Futura, Medium';font-variant-ligatures:normal;font-variant-caps:normal;font-variant-numeric:normal;font-feature-settings:normal;text-align:end;writing-mode:lr-tb;text-anchor:end"
         id="path3957" />
      <path
         d="m 507.8646,336.99277 q 0,-13.73698 9.83073,-23.3724 9.83072,-9.63541 23.95833,-9.63541 14.19271,0 24.08854,9.70052 9.76562,9.70052 9.76562,23.82812 0,14.25781 -9.83073,23.89323 -9.89583,9.57031 -24.28385,9.57031 -14.25781,0 -23.89323,-9.76562 -9.63541,-9.63542 -9.63541,-24.21875 z m 14.97395,0.26042 q 0,9.5052 5.07813,15.03906 5.20833,5.59896 13.73698,5.59896 8.59375,0 13.73698,-5.53386 5.14323,-5.53385 5.14323,-14.77864 0,-9.24479 -5.14323,-14.77865 -5.20834,-5.59896 -13.73698,-5.59896 -8.39844,0 -13.60677,5.59896 -5.20834,5.59896 -5.20834,14.45313 z"
         style="font-style:normal;font-variant:normal;font-weight:500;font-stretch:normal;font-size:133.33332825px;font-family:Futura;-inkscape-font-specification:'Futura, Medium';font-variant-ligatures:normal;font-variant-caps:normal;font-variant-numeric:normal;font-feature-settings:normal;text-align:end;writing-mode:lr-tb;text-anchor:end"
         id="path3959" />
      <path
         d="m 591.06773,305.74277 h 14.64844 v 5.66406 q 4.03646,-4.23177 7.16146,-5.79427 3.1901,-1.6276 7.55208,-1.6276 5.79427,0 12.10937,3.77604 l -6.70572,13.41146 q -4.16667,-2.99479 -8.13802,-2.99479 -11.97917,0 -11.97917,18.09895 v 32.87761 h -14.64844 z"
         style="font-style:normal;font-variant:normal;font-weight:500;font-stretch:normal;font-size:133.33332825px;font-family:Futura;-inkscape-font-specification:'Futura, Medium';font-variant-ligatures:normal;font-variant-caps:normal;font-variant-numeric:normal;font-feature-settings:normal;text-align:end;writing-mode:lr-tb;text-anchor:end"
         id="path3961" />
      <path
         d="m 712.7474,282.89121 v 86.26302 H 697.57813 V 282.89121 H 674.46615 V 268.6334 h 61.32812 v 14.25781 z"
         style="font-style:normal;font-variant:normal;font-weight:500;font-stretch:normal;font-size:133.33332825px;font-family:Futura;-inkscape-font-specification:'Futura, Medium';font-variant-ligatures:normal;font-variant-caps:normal;font-variant-numeric:normal;font-feature-settings:normal;text-align:end;writing-mode:lr-tb;text-anchor:end"
         id="path3963" />
      <path
         d="m 763.52864,305.74277 v 63.41146 H 748.8802 v -63.41146 z m -16.86198,-26.36719 q 0,-3.84114 2.79948,-6.64062 2.79948,-2.79948 6.70573,-2.79948 3.97135,0 6.77083,2.79948 2.79948,2.73437 2.79948,6.70573 0,3.97135 -2.79948,6.77083 -2.73437,2.79948 -6.70573,2.79948 -3.97135,0 -6.77083,-2.79948 -2.79948,-2.79948 -2.79948,-6.83594 z"
         style="font-style:normal;font-variant:normal;font-weight:500;font-stretch:normal;font-size:133.33332825px;font-family:Futura;-inkscape-font-specification:'Futura, Medium';font-variant-ligatures:normal;font-variant-caps:normal;font-variant-numeric:normal;font-feature-settings:normal;text-align:end;writing-mode:lr-tb;text-anchor:end"
         id="path3965" />
      <path
         d="M 796.86198,259.19329 V 369.15423 H 782.21355 V 259.19329 Z"
         style="font-style:normal;font-variant:normal;font-weight:500;font-stretch:normal;font-size:133.33332825px;font-family:Futura;-inkscape-font-specification:'Futura, Medium';font-variant-ligatures:normal;font-variant-caps:normal;font-variant-numeric:normal;font-feature-settings:normal;text-align:end;writing-mode:lr-tb;text-anchor:end"
         id="path3967" />
      <path
         d="m 873.29425,340.89902 h -45.4427 q 0.58593,7.8125 5.07812,12.43489 4.49219,4.5573 11.52344,4.5573 5.46875,0 9.04948,-2.60417 3.51562,-2.60417 8.00781,-9.63542 l 12.36979,6.90104 q -2.86458,4.88282 -6.05469,8.39844 -3.1901,3.45052 -6.83594,5.72917 -3.64583,2.21354 -7.8776,3.25521 -4.23177,1.04166 -9.17969,1.04166 -14.1927,0 -22.78645,-9.11458 -8.59375,-9.17969 -8.59375,-24.34896 0,-15.03906 8.33333,-24.34895 8.39844,-9.17969 22.26562,-9.17969 13.9974,0 22.13542,8.91927 8.07292,8.85417 8.07292,24.54427 z m -15.03906,-11.97917 q -3.0599,-11.71875 -14.77865,-11.71875 -2.66927,0 -5.01302,0.84636 -2.34375,0.78125 -4.29687,2.34375 -1.88802,1.49739 -3.25521,3.64583 -1.36719,2.14844 -2.08333,4.88281 z"
         style="font-style:normal;font-variant:normal;font-weight:500;font-stretch:normal;font-size:133.33332825px;font-family:Futura;-inkscape-font-specification:'Futura, Medium';font-variant-ligatures:normal;font-variant-caps:normal;font-variant-numeric:normal;font-feature-settings:normal;text-align:end;writing-mode:lr-tb;text-anchor:end"
         id="path3969" />
    </g>
    <g
       aria-label="


Toolkit"
       transform="matrix(0.23736075,0,0,0.23736075,-28.911513,108.2947)"
       style="font-style:normal;font-weight:normal;font-size:40px;line-height:1.25;font-family:sans-serif;letter-spacing:0px;word-spacing:0px;fill:#000000;fill-opacity:1;stroke:none"
       id="flowRoot3776">
      <path
         d="m 531.49741,332.89121 v 86.26302 H 516.32814 V 332.89121 H 493.21616 V 318.6334 h 61.32812 v 14.25781 z"
         style="font-style:normal;font-variant:normal;font-weight:500;font-stretch:normal;font-size:133.33332825px;font-family:Futura;-inkscape-font-specification:'Futura, Medium';font-variant-ligatures:normal;font-variant-caps:normal;font-variant-numeric:normal;font-feature-settings:normal;text-align:end;writing-mode:lr-tb;text-anchor:end"
         id="path3936" />
      <path
         d="m 556.3021,386.99277 q 0,-13.73698 9.83073,-23.3724 9.83072,-9.63541 23.95833,-9.63541 14.19271,0 24.08854,9.70052 9.76562,9.70052 9.76562,23.82812 0,14.25781 -9.83073,23.89323 -9.89583,9.57031 -24.28385,9.57031 -14.25781,0 -23.89323,-9.76562 -9.63541,-9.63542 -9.63541,-24.21875 z m 14.97395,0.26042 q 0,9.5052 5.07813,15.03906 5.20833,5.59896 13.73698,5.59896 8.59375,0 13.73698,-5.53386 5.14323,-5.53385 5.14323,-14.77864 0,-9.24479 -5.14323,-14.77865 -5.20834,-5.59896 -13.73698,-5.59896 -8.39844,0 -13.60677,5.59896 -5.20834,5.59896 -5.20834,14.45313 z"
         style="font-style:normal;font-variant:normal;font-weight:500;font-stretch:normal;font-size:133.33332825px;font-family:Futura;-inkscape-font-specification:'Futura, Medium';font-variant-ligatures:normal;font-variant-caps:normal;font-variant-numeric:normal;font-feature-settings:normal;text-align:end;writing-mode:lr-tb;text-anchor:end"
         id="path3938" />
      <path
         d="m 636.51042,386.99277 q 0,-13.73698 9.83073,-23.3724 9.83073,-9.63541 23.95833,-9.63541 14.19271,0 24.08854,9.70052 9.76563,9.70052 9.76563,23.82812 0,14.25781 -9.83073,23.89323 -9.89583,9.57031 -24.28385,9.57031 -14.25782,0 -23.89323,-9.76562 -9.63542,-9.63542 -9.63542,-24.21875 z m 14.97396,0.26042 q 0,9.5052 5.07812,15.03906 5.20834,5.59896 13.73698,5.59896 8.59375,0 13.73698,-5.53386 5.14323,-5.53385 5.14323,-14.77864 0,-9.24479 -5.14323,-14.77865 -5.20833,-5.59896 -13.73698,-5.59896 -8.39843,0 -13.60677,5.59896 -5.20833,5.59896 -5.20833,14.45313 z"
         style="font-style:normal;font-variant:normal;font-weight:500;font-stretch:normal;font-size:133.33332825px;font-family:Futura;-inkscape-font-specification:'Futura, Medium';font-variant-ligatures:normal;font-variant-caps:normal;font-variant-numeric:normal;font-feature-settings:normal;text-align:end;writing-mode:lr-tb;text-anchor:end"
         id="path3940" />
      <path
         d="M 734.36198,309.19329 V 419.15423 H 719.71354 V 309.19329 Z"
         style="font-style:normal;font-variant:normal;font-weight:500;font-stretch:normal;font-size:133.33332825px;font-family:Futura;-inkscape-font-specification:'Futura, Medium';font-variant-ligatures:normal;font-variant-caps:normal;font-variant-numeric:normal;font-feature-settings:normal;text-align:end;writing-mode:lr-tb;text-anchor:end"
         id="path3942" />
      <path
         d="m 767.69531,309.19329 v 67.05729 l 20.63802,-20.50781 h 19.66145 l -27.53906,26.6276 29.55729,36.78386 H 791.0026 l -20.96354,-26.75781 -2.34375,2.34375 v 24.41406 H 753.04687 V 309.19329 Z"
         style="font-style:normal;font-variant:normal;font-weight:500;font-stretch:normal;font-size:133.33332825px;font-family:Futura;-inkscape-font-specification:'Futura, Medium';font-variant-ligatures:normal;font-variant-caps:normal;font-variant-numeric:normal;font-feature-settings:normal;text-align:end;writing-mode:lr-tb;text-anchor:end"
         id="path3944" />
      <path
         d="m 834.10156,355.74277 v 63.41146 h -14.64844 v -63.41146 z m -16.86198,-26.36719 q 0,-3.84114 2.79948,-6.64062 2.79948,-2.79948 6.70573,-2.79948 3.97135,0 6.77083,2.79948 2.79948,2.73437 2.79948,6.70573 0,3.97135 -2.79948,6.77083 -2.73438,2.79948 -6.70573,2.79948 -3.97135,0 -6.77083,-2.79948 -2.79948,-2.79948 -2.79948,-6.83594 z"
         style="font-style:normal;font-variant:normal;font-weight:500;font-stretch:normal;font-size:133.33332825px;font-family:Futura;-inkscape-font-specification:'Futura, Medium';font-variant-ligatures:normal;font-variant-caps:normal;font-variant-numeric:normal;font-feature-settings:normal;text-align:end;writing-mode:lr-tb;text-anchor:end"
         id="path3946" />
      <path
         d="m 867.89063,369.41465 v 49.73958 h -14.64844 v -49.73958 h -6.25 v -13.67188 h 6.25 v -23.24219 h 14.64844 v 23.24219 h 11.39323 v 13.67188 z"
         style="font-style:normal;font-variant:normal;font-weight:500;font-stretch:normal;font-size:133.33332825px;font-family:Futura;-inkscape-font-specification:'Futura, Medium';font-variant-ligatures:normal;font-variant-caps:normal;font-variant-numeric:normal;font-feature-settings:normal;text-align:end;writing-mode:lr-tb;text-anchor:end"
         id="path3948" />
    </g>
  </g>
</svg>
